<svg width="32" height="32" viewBox="0 0 32 32" fill="none" xmlns="http://www.w3.org/2000/svg">
<g clip-path="url(#clip0_2068_5192)">
<path d="M22.0521 4.22977H27.1728C27.5123 4.22977 27.8379 4.36464 28.078 4.60472C28.3181 4.8448 28.453 5.17041 28.453 5.50993V25.9926C28.453 26.3321 28.3181 26.6577 28.078 26.8978C27.8379 27.1379 27.5123 27.2728 27.1728 27.2728H4.12978C3.79026 27.2728 3.46464 27.1379 3.22456 26.8978C2.98448 26.6577 2.84961 26.3321 2.84961 25.9926L2.84961 5.50993C2.84961 5.17041 2.98448 4.8448 3.22456 4.60472C3.46464 4.36464 3.79026 4.22977 4.12978 4.22977H9.25044V1.66943H11.8108V4.22977H19.4918V1.66943H22.0521V4.22977ZM5.40994 11.9108V24.7124H25.8926V11.9108H5.40994ZM7.97028 17.0314H14.3711V22.1521H7.97028L7.97028 17.0314Z" fill="white"/>
</g>
<defs>
<clipPath id="clip0_2068_5192">
<rect width="30.724" height="30.724" fill="white" transform="translate(0.289062 0.38916)"/>
</clipPath>
</defs>
</svg>
