<svg width="32" height="32" viewBox="0 0 32 32" fill="none" xmlns="http://www.w3.org/2000/svg">
<g clip-path="url(#clip0_2068_5200)">
<path d="M2.84961 12.0752C2.84894 11.0667 3.04721 10.0679 3.43307 9.13616C3.81893 8.20439 4.3848 7.35788 5.09829 6.64511C5.81177 5.93234 6.65884 5.36731 7.59101 4.98238C8.52317 4.59745 9.52211 4.40018 10.5306 4.40187L20.772 4.40187C25.0131 4.40187 28.453 7.85192 28.453 12.0752V27.4449H10.5306C6.28942 27.4449 2.84961 23.9948 2.84961 19.7716L2.84961 12.0752ZM25.8926 24.8845V12.0752C25.8892 10.7189 25.3484 9.41915 24.3886 8.46079C23.4288 7.50243 22.1283 6.96355 20.772 6.9622H10.5306C9.85833 6.96052 9.19233 7.09156 8.5708 7.34782C7.94928 7.60408 7.38445 7.98051 6.90872 8.45553C6.43298 8.93055 6.0557 9.49481 5.79851 10.116C5.54131 10.7371 5.40927 11.4029 5.40995 12.0752V19.7716C5.41333 21.1279 5.95416 22.4276 6.91396 23.386C7.87376 24.3443 9.17427 24.8832 10.5306 24.8845H25.8926ZM18.2116 14.6432H20.772V17.2035H18.2116V14.6432ZM10.5306 14.6432H13.091V17.2035H10.5306V14.6432Z" fill="white"/>
</g>
<defs>
<clipPath id="clip0_2068_5200">
<rect width="30.724" height="30.724" fill="white" transform="translate(0.289062 0.561523)"/>
</clipPath>
</defs>
</svg>
