<svg width="32" height="32" viewBox="0 0 32 32" fill="none" xmlns="http://www.w3.org/2000/svg">
<g clip-path="url(#clip0_2068_5196)">
<path d="M15.6513 28.8973C8.58092 28.8973 2.84961 23.166 2.84961 16.0956C2.84961 10.363 6.61714 5.51119 11.8108 3.88026V6.59934C9.61007 7.49295 7.78824 9.12345 6.6569 11.2119C5.52557 13.3004 5.15504 15.7171 5.60869 18.0486C6.06235 20.3801 7.312 22.4815 9.14389 23.9934C10.9758 25.5053 13.2761 26.3337 15.6513 26.337C17.6916 26.3369 19.6854 25.7276 21.3773 24.5873C23.0691 23.4469 24.382 21.8273 25.1476 19.9361H27.8666C26.2357 25.1298 21.3839 28.8973 15.6513 28.8973ZM28.3889 17.3758H14.3711V3.35795C14.7923 3.31571 15.2199 3.29395 15.6513 3.29395C22.7216 3.29395 28.453 9.02525 28.453 16.0956C28.453 16.527 28.4312 16.9546 28.3889 17.3758ZM16.9314 5.93365V14.8154H25.8132C25.5283 12.5593 24.5009 10.462 22.8929 8.85401C21.2849 7.24599 19.1876 6.2186 16.9314 5.93365Z" fill="white"/>
</g>
<defs>
<clipPath id="clip0_2068_5196">
<rect width="30.724" height="30.724" fill="white" transform="translate(0.289062 0.733398)"/>
</clipPath>
</defs>
</svg>
