<svg width="32" height="31" viewBox="0 0 32 31" fill="none" xmlns="http://www.w3.org/2000/svg">
<g clip-path="url(#clip0_2068_5208)">
<path d="M5.41081 23.1204H7.97115V25.6807H23.3332V5.19803H7.97115V7.75836H5.41081V3.91786C5.41081 3.57834 5.54569 3.25273 5.78577 3.01265C6.02584 2.77257 6.35146 2.6377 6.69098 2.6377L24.6133 2.6377C24.9528 2.6377 25.2785 2.77257 25.5185 3.01265C25.7586 3.25273 25.8935 3.57834 25.8935 3.91786V26.9609C25.8935 27.3004 25.7586 27.626 25.5185 27.8661C25.2785 28.1062 24.9528 28.241 24.6133 28.241H6.69098C6.35146 28.241 6.02584 28.1062 5.78577 27.8661C5.54569 27.626 5.41081 27.3004 5.41081 26.9609V23.1204ZM7.97115 14.1592H16.9323V16.7195H7.97115L7.97115 20.56L1.57031 15.4394L7.97115 10.3187V14.1592Z" fill="white"/>
</g>
<defs>
<clipPath id="clip0_2068_5208">
<rect width="30.724" height="30.724" fill="white" transform="translate(0.289062 0.0771484)"/>
</clipPath>
</defs>
</svg>
