<svg width="28" height="29" viewBox="0 0 28 29" fill="none" xmlns="http://www.w3.org/2000/svg">
<path d="M4.97846 22.4855C5.24082 24.4342 6.85483 25.9608 8.81895 26.0511C10.4717 26.127 12.1505 26.1667 13.9993 26.1667C15.8482 26.1667 17.527 26.127 19.1797 26.0511C21.1439 25.9608 22.7579 24.4342 23.0203 22.4855C23.1915 21.2138 23.3327 19.9105 23.3327 18.5833C23.3327 17.2561 23.1915 15.9529 23.0203 14.6812C22.7579 12.7325 21.1439 11.2059 19.1797 11.1156C17.527 11.0396 15.8482 11 13.9993 11C12.1505 11 10.4717 11.0396 8.81895 11.1156C6.85483 11.2059 5.24082 12.7325 4.97846 14.6812C4.80724 15.9529 4.66602 17.2561 4.66602 18.5833C4.66602 19.9105 4.80724 21.2138 4.97846 22.4855Z" stroke="#9E9E9E" stroke-width="1.75"/>
<path d="M8.75 11.0002V8.0835C8.75 5.184 11.1005 2.8335 14 2.8335C16.8995 2.8335 19.25 5.184 19.25 8.0835V11.0002" stroke="#9E9E9E" stroke-width="1.75" stroke-linecap="round" stroke-linejoin="round"/>
<path d="M18.666 18.5718V18.5834" stroke="#9E9E9E" stroke-width="2.33333" stroke-linecap="round" stroke-linejoin="round"/>
<path d="M14 18.5718V18.5834" stroke="#9E9E9E" stroke-width="2.33333" stroke-linecap="round" stroke-linejoin="round"/>
<path d="M9.33398 18.5718V18.5834" stroke="#9E9E9E" stroke-width="2.33333" stroke-linecap="round" stroke-linejoin="round"/>
</svg>
