<svg width="34" height="34" viewBox="0 0 34 34" fill="none" xmlns="http://www.w3.org/2000/svg">
<g clip-path="url(#clip0_2068_5204)">
<path d="M4.8511 24.1189C4.27385 23.1207 3.82514 22.0535 3.51563 20.9427C4.18924 20.6001 4.75496 20.0778 5.15018 19.4337C5.54541 18.7895 5.75474 18.0486 5.75503 17.2929C5.75531 16.5371 5.54653 15.796 5.15178 15.1516C4.75704 14.5071 4.19172 13.9844 3.51836 13.6413C4.13562 11.4094 5.3109 9.3713 6.9335 7.71909C7.56723 8.1311 8.30259 8.35974 9.05821 8.3797C9.81383 8.39966 10.5602 8.21017 11.2148 7.8322C11.8694 7.45423 12.4067 6.90252 12.7671 6.23812C13.1276 5.57372 13.2972 4.82254 13.2572 4.06772C15.4995 3.48822 17.8524 3.48916 20.0943 4.07045C20.0546 4.82525 20.2246 5.57632 20.5853 6.24053C20.946 6.90474 21.4835 7.4562 22.1382 7.83388C22.793 8.21156 23.5394 8.40074 24.295 8.38048C25.0506 8.36022 25.7858 8.13132 26.4194 7.71909C27.21 8.52475 27.9119 9.441 28.5018 10.4638C29.093 11.4865 29.5354 12.553 29.8372 13.64C29.1636 13.9826 28.5979 14.5048 28.2027 15.149C27.8074 15.7931 27.5981 16.5341 27.5978 17.2898C27.5975 18.0455 27.8063 18.7866 28.2011 19.4311C28.5958 20.0755 29.1611 20.5982 29.8345 20.9413C29.2172 23.1733 28.042 25.2114 26.4194 26.8636C25.7856 26.4516 25.0503 26.2229 24.2946 26.203C23.539 26.183 22.7926 26.3725 22.138 26.7505C21.4834 27.1284 20.9462 27.6801 20.5857 28.3445C20.2253 29.0089 20.0556 29.7601 20.0957 30.5149C17.8533 31.0944 15.5004 31.0935 13.2586 30.5122C13.2982 29.7574 13.1283 29.0063 12.7675 28.3421C12.4068 27.6779 11.8693 27.1265 11.2146 26.7488C10.5599 26.3711 9.81344 26.1819 9.05786 26.2022C8.30229 26.2224 7.56704 26.4513 6.9335 26.8636C6.12647 26.0401 5.42679 25.1179 4.8511 24.1189ZM12.5799 24.3865C14.035 25.2258 15.1291 26.5727 15.6523 28.169C16.3337 28.2332 17.0178 28.2345 17.6992 28.1704C18.2227 26.5739 19.3173 25.2269 20.773 24.3879C22.2275 23.5463 23.9417 23.2716 25.5864 23.6164C25.9824 23.0593 26.3238 22.4653 26.6078 21.8439C25.4873 20.5924 24.8683 18.9712 24.8695 17.2913C24.8695 15.5708 25.5113 13.9636 26.6078 12.7387C26.3218 12.1176 25.9789 11.5243 25.5837 10.9663C23.94 11.3108 22.2269 11.0366 20.773 10.1961C19.3178 9.35685 18.2238 8.00992 17.7006 6.41366C17.0192 6.34949 16.335 6.34812 15.6537 6.4123C15.1301 8.00878 14.0355 9.35574 12.5799 10.1948C11.1253 11.0364 9.41119 11.3111 7.76646 10.9663C7.37124 11.5238 7.02927 12.1172 6.74506 12.7387C7.86556 13.9903 8.48456 15.6115 8.48336 17.2913C8.48336 19.0119 7.84157 20.6191 6.74506 21.8439C7.0311 22.4651 7.37393 23.0584 7.76919 23.6164C9.41288 23.2719 11.1259 23.5461 12.5799 24.3865ZM16.6764 21.3879C15.59 21.3879 14.548 20.9563 13.7797 20.188C13.0115 19.4198 12.5799 18.3778 12.5799 17.2913C12.5799 16.2049 13.0115 15.1629 13.7797 14.3946C14.548 13.6264 15.59 13.1948 16.6764 13.1948C17.7629 13.1948 18.8049 13.6264 19.5731 14.3946C20.3414 15.1629 20.773 16.2049 20.773 17.2913C20.773 18.3778 20.3414 19.4198 19.5731 20.188C18.8049 20.9563 17.7629 21.3879 16.6764 21.3879ZM16.6764 18.6568C17.0386 18.6568 17.3859 18.513 17.642 18.2569C17.8981 18.0008 18.0419 17.6535 18.0419 17.2913C18.0419 16.9292 17.8981 16.5819 17.642 16.3258C17.3859 16.0697 17.0386 15.9258 16.6764 15.9258C16.3143 15.9258 15.9669 16.0697 15.7109 16.3258C15.4548 16.5819 15.3109 16.9292 15.3109 17.2913C15.3109 17.6535 15.4548 18.0008 15.7109 18.2569C15.9669 18.513 16.3143 18.6568 16.6764 18.6568Z" fill="white"/>
</g>
<defs>
<clipPath id="clip0_2068_5204">
<rect width="32.7723" height="32.7723" fill="white" transform="translate(0.289062 0.905273)"/>
</clipPath>
</defs>
</svg>
